<?xml version="1.0" encoding="utf-8"?>
<!-- Generator: Adobe Illustrator 24.2.0, SVG Export Plug-In . SVG Version: 6.00 Build 0)  -->
<svg version="1.1" id="Layer_1" xmlns="http://www.w3.org/2000/svg" xmlns:xlink="http://www.w3.org/1999/xlink" x="0px" y="0px"
	 viewBox="0 0 413.7 550" style="enable-background:new 0 0 413.7 550;" xml:space="preserve">
<style type="text/css">
	.st0{fill:#FFFFFF;}
</style>
<g>
	<path d="M230.8,550H0V0h222.3c60.4,0,105.9,13.7,136.3,41.1c30.5,27.4,45.7,63.5,45.7,108.5c0,28.9-7.1,54-21.3,75.1
		c-14.2,21.2-33.7,36.9-58.5,47.3c27.4,9.3,49.1,24.9,65.1,46.9c16,22,24,47.6,24,77.1c0,48.5-15.8,86.4-47.3,113.5
		C334.9,536.4,289.7,550,230.8,550z"/>
</g>
<g>
	<path class="st0" d="M303.3,374.7v60H35.8V54.2h267.5v60H100.7v97.6h193.5v60H100.7v102.9H303.3z"/>
</g>
<g>
	<path class="st0" d="M50.3,498.3H35.8v-42.6h14.5c7.2,0,12.8,1.9,16.8,5.8s6,9.1,6,15.5c0,6.4-2,11.5-6,15.5
		C63.1,496.3,57.5,498.3,50.3,498.3z M61.6,487.7c2.6-2.6,3.9-6.2,3.9-10.7c0-4.6-1.3-8.1-3.9-10.7s-6.4-3.9-11.6-3.9h-7v29.2h7
		C55.1,491.5,59,490.3,61.6,487.7z"/>
	<path class="st0" d="M88.2,455.7v42.6h-7.3v-42.6H88.2z"/>
	<path class="st0" d="M137.6,475v23.3h-6.5v-6.1c-1.4,2.1-3.3,3.8-5.7,5s-5.3,1.8-8.5,1.8c-6.1,0-11.1-2-15-6.1
		c-3.9-4.1-5.8-9.4-5.8-15.9c0-6.5,2-11.8,6-16c4-4.1,9.1-6.2,15.3-6.2c5.2,0,9.6,1.4,13.3,4.2c3.7,2.8,6,6.6,7,11.5h-7.9
		c-0.8-2.8-2.2-4.9-4.5-6.4c-2.2-1.5-4.9-2.3-8-2.3c-4.2,0-7.6,1.4-10,4.1c-2.4,2.7-3.6,6.4-3.6,11.1c0,4.6,1.2,8.4,3.7,11.3
		c2.5,2.9,5.8,4.3,9.9,4.3c3.7,0,6.7-0.9,9.1-2.8c2.4-1.9,3.8-4.6,4.3-8h-11.4V475H137.6z"/>
	<path class="st0" d="M154.1,455.7v42.6h-7.3v-42.6H154.1z"/>
	<path class="st0" d="M191.5,455.7v6.9h-12.4v35.7h-7.3v-35.7h-12.4v-6.9H191.5z"/>
	<path class="st0" d="M195.6,498.3H188l16.5-42.6h7.7l16.6,42.6h-7.9l-3.1-8.2h-19.1L195.6,498.3z M208.3,464.7L208.3,464.7
		l-7.1,18.8h14.1L208.3,464.7z"/>
	<path class="st0" d="M260.8,491.5v6.7h-27v-42.6h7.3v35.9H260.8z"/>
</g>
<g>
</g>
<g>
</g>
<g>
</g>
<g>
</g>
<g>
</g>
</svg>
